<svg viewBox="-55 0 479 479.93062" xmlns="http://www.w3.org/2000/svg"><path d="m184.625 7.929688h-.320312c-43.757813 39.441406-106.398438 72-175.839844 72v277.039062c-.015625 25.984375 15.703125 49.390625 39.761718 59.203125l136.238282 55.757813 131.28125-53.679688c27.03125-11.097656 44.695312-37.417969 44.71875-66.640625v-271.679687c-69.4375 0-132.078125-32.558594-175.839844-72zm0 0" fill="#c65233"/><path d="m184.304688 7.929688c-43.757813 39.441406-106.398438 72-175.839844 72v277.039062c-.015625 25.984375 15.703125 49.390625 39.761718 59.203125l136.238282 55.757813v-464zm0 0" fill="#bf3c1a"/><path d="m184.625 7.929688h-.160156v464l131.28125-53.679688c27.03125-11.097656 44.695312-37.417969 44.71875-66.640625v-271.679687c-69.4375 0-132.078125-32.558594-175.839844-72zm0 0" fill="#c65233"/><path d="m360.464844 71.929688c-59.023438 0-121.167969-25.496094-170.488282-69.941407-3.195312-2.652343-7.824218-2.652343-11.023437 0-49.320313 44.445313-111.464844 69.941407-170.488281 69.941407-4.417969 0-8 3.582031-8 8v277.039062c-.070313 29.246094 17.628906 55.605469 44.730468 66.601562l136.238282 55.761719c.960937.394531 1.992187.597657 3.03125.597657 1.039062 0 2.0625-.203126 3.023437-.589844l131.304688-53.6875c30.082031-12.273438 49.726562-41.550782 49.671875-74.042969v-271.679687c0-4.417969-3.582032-8-8-8zm-8 279.679687c.027344 25.980469-15.6875 49.390625-39.742188 59.203125l-128.257812 52.46875-133.214844-54.550781c-21.0625-8.550781-34.824219-29.027344-34.785156-51.761719v-269.183594c62.1875-3.632812 121.351562-28.050781 168-69.335937 46.648437 41.285156 105.8125 65.703125 168 69.335937zm0 0" fill="#1c1c1c"/></svg>