<svg viewBox="-143 0 479 479.83388" xmlns="http://www.w3.org/2000/svg"><path d="m72.417969 359.753906c14.183593 10.773438 33.8125 10.773438 48 0 5.523437-4.140625 9.898437-9.621094 12.71875-15.921875h51.28125v-32h-51.28125c-6.386719-14.582031-20.800781-24.003906-36.71875-24.003906-15.921875 0-30.332031 9.421875-36.722657 24.003906h-51.277343v32h51.277343c2.820313 6.300781 7.199219 11.78125 12.722657 15.921875zm0 0" fill="#ff7754"/><path d="m72.417969 359.753906v112.078125h48v-112.078125c-14.1875 10.773438-33.816407 10.773438-48 0zm0 0" fill="#ab8f6e"/><path d="m120.417969 327.832031c0 13.257813-10.746094 24-24 24-13.257813 0-24-10.742187-24-24 0-13.253906 10.742187-24 24-24 13.253906 0 24 10.746094 24 24zm0 0" fill="#d80027"/><path d="m88.417969 367.832031h16v104h-16zm0 0" fill="#806b53"/><path d="m72.417969 38.691406-32 41.140625 7.839843 232h11.4375c2.851563-6.351562 7.296876-11.863281 12.898438-16h-.175781zm0 0" fill="#dfdfdf"/><path d="m120.417969 38.691406v257.140625h-.175781c5.601562 4.136719 10.042968 9.648438 12.894531 16h11.441406l7.839844-232zm0 0" fill="#dfdfdf"/><path d="m96.417969 7.832031-24 30.859375v257.140625h.175781c14.089844-10.664062 33.554688-10.664062 47.648438 0h.175781v-257.140625zm0 0" fill="#b9bcc3"/><path d="m184.417969 303.832031h-31.570313l7.570313-223.726562c.054687-1.871094-.539063-3.703125-1.679688-5.183594l-56-72c-1.578125-1.855469-3.886719-2.921875-6.320312-2.921875-2.433594 0-4.746094 1.066406-6.320313 2.921875l-56 72c-1.144531 1.480469-1.738281 3.3125-1.679687 5.183594l7.566406 223.726562h-31.566406c-4.417969 0-8 3.582031-8 8v32c0 4.421875 3.582031 8 8 8h46.398437c2.59375 4.269531 5.832032 8.113281 9.601563 11.394531v108.605469c0 4.421875 3.582031 8 8 8h48c4.417969 0 8-3.578125 8-8v-108.613281c3.765625-3.28125 7.003906-7.121094 9.597656-11.386719h46.402344c4.417969 0 8-3.578125 8-8v-32c0-4.417969-3.582031-8-8-8zm-88-282.964843 47.902343 61.597656-7.414062 219.554687c-.417969-.65625-.921875-1.234375-1.371094-1.867187-.535156-.75-1.0625-1.511719-1.644531-2.230469-.707031-.886719-1.472656-1.71875-2.242187-2.542969-.625-.679687-1.230469-1.367187-1.894532-2-.800781-.800781-1.679687-1.503906-2.554687-2.226562-.695313-.582032-1.367188-1.191406-2.09375-1.726563-.921875-.6875-1.878907-1.289062-2.847657-1.902343-.746093-.480469-1.472656-.992188-2.25-1.433594-1.015624-.574219-2.078124-1.054688-3.136718-1.550782-.796875-.378906-1.542969-.800781-2.34375-1.113281-1.125-.457031-2.292969-.800781-3.453125-1.183593-.800781-.257813-1.554688-.558594-2.351563-.800782-1.304687-.34375-2.65625-.566406-4-.800781l-.304687-.054687v-216.753907c0-4.417969-3.582031-8-8-8s-8 3.582031-8 8v216.753907l-.304688.0625c-1.34375.242187-2.695312.464843-4 .800781-.800781.214843-1.601562.519531-2.34375.800781-1.160156.375-2.335937.726562-3.464843 1.191406-.800782.328125-1.601563.738282-2.34375 1.113282-1.054688.496093-2.121094.976562-3.136719 1.550781-.800781.441406-1.503907.953125-2.246094 1.433593-.96875.613282-1.929687 1.214844-2.847656 1.902344-.730469.535156-1.402344 1.144532-2.097657 1.71875-.871093.730469-1.734374 1.449219-2.550781 2.234375-.664062.640625-1.265625 1.320313-1.890625 1.992188-.796875.800781-1.535156 1.664062-2.246094 2.550781-.585937.71875-1.113281 1.480469-1.648437 2.230469-.449219.632812-.953125 1.210937-1.367187 1.867187l-7.417969-219.554687zm16 442.964843h-32v-90.710937l.328125.082031c2.167968.726563 4.386718 1.300781 6.640625 1.710937.308593.054688.605469.175782.925781.222657 5.367188.929687 10.851562.929687 16.214844 0 .273437 0 .523437-.144531.800781-.191407 2.304687-.414062 4.574219-.996093 6.792969-1.742187.097656-.042969.207031-.050781.304687-.082031zm64-128h-43.28125c-3.167969 0-6.035157 1.867188-7.320313 4.761719-6.707031 15.113281-23.765625 22.695312-39.480468 17.542969-3.292969-1.0625-6.378907-2.6875-9.117188-4.800781-4.429688-3.292969-7.941406-7.667969-10.203125-12.703126-1.269531-2.910156-4.140625-4.792968-7.320313-4.800781h-43.277343v-16h43.277343c3.164063 0 6.03125-1.863281 7.3125-4.757812 5.109376-11.6875 16.65625-19.238281 29.410157-19.238281 12.753906 0 24.296875 7.550781 29.40625 19.238281 1.28125 2.894531 4.148437 4.757812 7.3125 4.757812h43.28125zm0 0" fill="#1c1c1c"/></svg>